<svg width="8" height="8" viewBox="0 0 8 8" fill="none" xmlns="http://www.w3.org/2000/svg">
  <path
    d="M0.382813 1.73906C0.242188 1.78594 0.115625 1.89844 0.0453125 2.03906C0.0125 2.10625 0.0078125 2.13906 0.0078125 2.28125C0.0078125 2.43125 0.0109375 2.45312 0.0515625 2.53125C0.0890625 2.60156 0.429688 2.95 1.87188 4.39375C3.34688 5.87031 3.66406 6.17969 3.74219 6.22187C3.83125 6.27031 3.84375 6.27344 4 6.27344C4.15625 6.27344 4.16875 6.27031 4.25781 6.22187C4.3375 6.17969 4.65156 5.87187 6.13438 4.38594C7.54844 2.97031 7.92344 2.58594 7.95469 2.52344C7.9875 2.45625 7.99219 2.42344 7.99219 2.28125C7.99219 2.13125 7.9875 2.10937 7.94688 2.02812C7.89219 1.92031 7.80156 1.82969 7.6875 1.77031C7.60938 1.73125 7.58594 1.72656 7.44531 1.72656C7.17188 1.72656 7.32813 1.59062 5.55938 3.35781L4 4.91406L2.44219 3.35781C0.690625 1.61094 0.829688 1.73125 0.578125 1.72344C0.5 1.72187 0.420313 1.72812 0.382813 1.73906Z"
    fill="current" />
</svg>