<svg width="24" height="24" viewBox="0 0 24 24" fill="none" xmlns="http://www.w3.org/2000/svg">
  <path
    d="M3.01875 0.112524C2.53594 0.290649 2.19375 0.604711 1.97344 1.07346L1.85156 1.33596V12V22.6641L2.00625 22.9781C2.32031 23.6156 2.86406 23.9531 3.63281 23.9906C4.10625 24.0094 4.40625 23.9297 4.78594 23.6719C4.89844 23.5969 6.5625 22.0266 8.47969 20.1797C10.3969 18.3375 11.9812 16.8281 12 16.8281C12.0234 16.8281 13.4813 18.2156 15.2438 19.9078C19.3172 23.8266 19.1297 23.6485 19.3922 23.7797C19.8938 24.0328 20.5313 24.061 21.0563 23.8641C21.4313 23.7188 21.8016 23.3719 21.9938 22.9781L22.1484 22.6641V12V1.33596L21.9938 1.0219C21.8063 0.637525 21.4359 0.285962 21.0563 0.131275L20.7891 0.0234613L12.0469 0.0140872L3.30469 0.00471163L3.01875 0.112524Z"
    fill="#FCCE61" />
</svg>