<svg width="24" height="24" viewBox="0 0 24 24" fill="none" xmlns="http://www.w3.org/2000/svg">
  <path
    d="M3.01875 0.112493C2.53594 0.290618 2.19375 0.60468 1.97344 1.07343L1.85156 1.33593V12V22.6641L2.00625 22.9781C2.32031 23.6156 2.86406 23.9531 3.63281 23.9906C4.10625 24.0094 4.40625 23.9297 4.78594 23.6719C4.89844 23.5969 6.5625 22.0266 8.47969 20.1797C10.3969 18.3375 11.9813 16.8281 12 16.8281C12.0234 16.8281 13.4813 18.2156 15.2438 19.9078C19.3172 23.8266 19.1297 23.6484 19.3922 23.7797C19.8938 24.0328 20.5313 24.0609 21.0563 23.8641C21.4313 23.7187 21.8016 23.3719 21.9938 22.9781L22.1484 22.6641V12V1.33593L21.9938 1.02187C21.8063 0.637493 21.4359 0.28593 21.0563 0.131243L20.7891 0.0234304L12.0469 0.0140554L3.30469 0.00468044L3.01875 0.112493ZM20.1094 11.8687V21.6703L19.7953 21.3703C19.6172 21.2016 17.9391 19.5937 16.0547 17.7891C14.175 15.9844 12.4922 14.3719 12.3188 14.2078L12 13.9078L11.6859 14.2078C11.5078 14.3719 9.82969 15.9844 7.94531 17.7891C6.06563 19.5937 4.38281 21.2016 4.20938 21.3703L3.89063 21.6703V11.8687V2.06249H12H20.1094V11.8687Z"
    fill="#1A1A1A" />
</svg>